<mxfile host="app.diagrams.net" modified="2023-04-04T05:24:51.011Z" agent="Mozilla/5.0 (Windows NT 10.0; Win64; x64) AppleWebKit/537.36 (KHTML, like Gecko) Chrome/111.0.0.0 Safari/537.36" etag="B3qQY-XFkS4DwwRkTFIM" version="21.1.4" type="device">
  <diagram id="2K7cN1gOWZSAoRgvKtnY" name="Page-1">
    <mxGraphModel dx="2420" dy="884" grid="1" gridSize="10" guides="1" tooltips="1" connect="1" arrows="1" fold="1" page="1" pageScale="1" pageWidth="827" pageHeight="1169" math="0" shadow="0">
      <root>
        <mxCell id="0" />
        <mxCell id="1" parent="0" />
        <mxCell id="6gloDPyF0UgEzVEKXp_a-5" value="Отчеты" style="swimlane;fontStyle=1;align=center;verticalAlign=top;childLayout=stackLayout;horizontal=1;startSize=26;horizontalStack=0;resizeParent=1;resizeParentMax=0;resizeLast=0;collapsible=1;marginBottom=0;" parent="1" vertex="1">
          <mxGeometry x="-202" y="289" width="160" height="134" as="geometry" />
        </mxCell>
        <mxCell id="6gloDPyF0UgEzVEKXp_a-6" value="+ Дата: строка&#xa;+ Название: строка&#xa;+ Номер отчета: строка&#xa;+ Описание: строка" style="text;strokeColor=none;fillColor=none;align=left;verticalAlign=top;spacingLeft=4;spacingRight=4;overflow=hidden;rotatable=0;points=[[0,0.5],[1,0.5]];portConstraint=eastwest;" parent="6gloDPyF0UgEzVEKXp_a-5" vertex="1">
          <mxGeometry y="26" width="160" height="74" as="geometry" />
        </mxCell>
        <mxCell id="6gloDPyF0UgEzVEKXp_a-7" value="" style="line;strokeWidth=1;fillColor=none;align=left;verticalAlign=middle;spacingTop=-1;spacingLeft=3;spacingRight=3;rotatable=0;labelPosition=right;points=[];portConstraint=eastwest;" parent="6gloDPyF0UgEzVEKXp_a-5" vertex="1">
          <mxGeometry y="100" width="160" height="8" as="geometry" />
        </mxCell>
        <mxCell id="6gloDPyF0UgEzVEKXp_a-8" value="+ method(type): type" style="text;strokeColor=none;fillColor=none;align=left;verticalAlign=top;spacingLeft=4;spacingRight=4;overflow=hidden;rotatable=0;points=[[0,0.5],[1,0.5]];portConstraint=eastwest;" parent="6gloDPyF0UgEzVEKXp_a-5" vertex="1">
          <mxGeometry y="108" width="160" height="26" as="geometry" />
        </mxCell>
        <mxCell id="6gloDPyF0UgEzVEKXp_a-9" value="Билет" style="swimlane;fontStyle=1;align=center;verticalAlign=top;childLayout=stackLayout;horizontal=1;startSize=26;horizontalStack=0;resizeParent=1;resizeParentMax=0;resizeLast=0;collapsible=1;marginBottom=0;" parent="1" vertex="1">
          <mxGeometry x="-403" y="289" width="160" height="134" as="geometry" />
        </mxCell>
        <mxCell id="6gloDPyF0UgEzVEKXp_a-10" value="+ ID: строка&#xa;+ Наименование: строка&#xa;+ Дата и время: datatime&#xa;+ Место: сирока&#xa;+ Количество: строка&#xa;+ Цена: строка" style="text;strokeColor=none;fillColor=none;align=left;verticalAlign=top;spacingLeft=4;spacingRight=4;overflow=hidden;rotatable=0;points=[[0,0.5],[1,0.5]];portConstraint=eastwest;" parent="6gloDPyF0UgEzVEKXp_a-9" vertex="1">
          <mxGeometry y="26" width="160" height="74" as="geometry" />
        </mxCell>
        <mxCell id="6gloDPyF0UgEzVEKXp_a-11" value="" style="line;strokeWidth=1;fillColor=none;align=left;verticalAlign=middle;spacingTop=-1;spacingLeft=3;spacingRight=3;rotatable=0;labelPosition=right;points=[];portConstraint=eastwest;" parent="6gloDPyF0UgEzVEKXp_a-9" vertex="1">
          <mxGeometry y="100" width="160" height="8" as="geometry" />
        </mxCell>
        <mxCell id="6gloDPyF0UgEzVEKXp_a-12" value="+ method(type): type" style="text;strokeColor=none;fillColor=none;align=left;verticalAlign=top;spacingLeft=4;spacingRight=4;overflow=hidden;rotatable=0;points=[[0,0.5],[1,0.5]];portConstraint=eastwest;" parent="6gloDPyF0UgEzVEKXp_a-9" vertex="1">
          <mxGeometry y="108" width="160" height="26" as="geometry" />
        </mxCell>
        <mxCell id="6gloDPyF0UgEzVEKXp_a-13" value="Платеж" style="swimlane;fontStyle=1;align=center;verticalAlign=top;childLayout=stackLayout;horizontal=1;startSize=26;horizontalStack=0;resizeParent=1;resizeParentMax=0;resizeLast=0;collapsible=1;marginBottom=0;" parent="1" vertex="1">
          <mxGeometry x="-330" y="696" width="160" height="134" as="geometry" />
        </mxCell>
        <mxCell id="6gloDPyF0UgEzVEKXp_a-14" value="+ Номер: строка&#xa;+ Дата/время: строка&#xa;+ Сумма: строка" style="text;strokeColor=none;fillColor=none;align=left;verticalAlign=top;spacingLeft=4;spacingRight=4;overflow=hidden;rotatable=0;points=[[0,0.5],[1,0.5]];portConstraint=eastwest;" parent="6gloDPyF0UgEzVEKXp_a-13" vertex="1">
          <mxGeometry y="26" width="160" height="74" as="geometry" />
        </mxCell>
        <mxCell id="6gloDPyF0UgEzVEKXp_a-15" value="" style="line;strokeWidth=1;fillColor=none;align=left;verticalAlign=middle;spacingTop=-1;spacingLeft=3;spacingRight=3;rotatable=0;labelPosition=right;points=[];portConstraint=eastwest;" parent="6gloDPyF0UgEzVEKXp_a-13" vertex="1">
          <mxGeometry y="100" width="160" height="8" as="geometry" />
        </mxCell>
        <mxCell id="6gloDPyF0UgEzVEKXp_a-16" value="+ method(type): type" style="text;strokeColor=none;fillColor=none;align=left;verticalAlign=top;spacingLeft=4;spacingRight=4;overflow=hidden;rotatable=0;points=[[0,0.5],[1,0.5]];portConstraint=eastwest;" parent="6gloDPyF0UgEzVEKXp_a-13" vertex="1">
          <mxGeometry y="108" width="160" height="26" as="geometry" />
        </mxCell>
        <mxCell id="6gloDPyF0UgEzVEKXp_a-21" value="Администратор" style="swimlane;fontStyle=1;align=center;verticalAlign=top;childLayout=stackLayout;horizontal=1;startSize=26;horizontalStack=0;resizeParent=1;resizeParentMax=0;resizeLast=0;collapsible=1;marginBottom=0;" parent="1" vertex="1">
          <mxGeometry x="-217" y="110" width="190" height="100" as="geometry" />
        </mxCell>
        <mxCell id="6gloDPyF0UgEzVEKXp_a-22" value="+ ФИО: строка" style="text;strokeColor=none;fillColor=none;align=left;verticalAlign=top;spacingLeft=4;spacingRight=4;overflow=hidden;rotatable=0;points=[[0,0.5],[1,0.5]];portConstraint=eastwest;" parent="6gloDPyF0UgEzVEKXp_a-21" vertex="1">
          <mxGeometry y="26" width="190" height="26" as="geometry" />
        </mxCell>
        <mxCell id="6gloDPyF0UgEzVEKXp_a-23" value="" style="line;strokeWidth=1;fillColor=none;align=left;verticalAlign=middle;spacingTop=-1;spacingLeft=3;spacingRight=3;rotatable=0;labelPosition=right;points=[];portConstraint=eastwest;" parent="6gloDPyF0UgEzVEKXp_a-21" vertex="1">
          <mxGeometry y="52" width="190" height="8" as="geometry" />
        </mxCell>
        <mxCell id="6gloDPyF0UgEzVEKXp_a-24" value="+ Просмотр отчетов (type): type&#xa;+ Планирование сеансов" style="text;strokeColor=none;fillColor=none;align=left;verticalAlign=top;spacingLeft=4;spacingRight=4;overflow=hidden;rotatable=0;points=[[0,0.5],[1,0.5]];portConstraint=eastwest;" parent="6gloDPyF0UgEzVEKXp_a-21" vertex="1">
          <mxGeometry y="60" width="190" height="40" as="geometry" />
        </mxCell>
        <mxCell id="6gloDPyF0UgEzVEKXp_a-29" value="Клиент" style="swimlane;fontStyle=1;align=center;verticalAlign=top;childLayout=stackLayout;horizontal=1;startSize=26;horizontalStack=0;resizeParent=1;resizeParentMax=0;resizeLast=0;collapsible=1;marginBottom=0;" parent="1" vertex="1">
          <mxGeometry x="-404" y="63" width="170" height="180" as="geometry" />
        </mxCell>
        <mxCell id="6gloDPyF0UgEzVEKXp_a-30" value="+ ФИО: строка&#xa;+ Логин: строка&#xa;+ Пароль: строка&#xa;+ Телефон: строка&#xa;+ Email: строка&#xa;+ ID: строка" style="text;strokeColor=none;fillColor=none;align=left;verticalAlign=top;spacingLeft=4;spacingRight=4;overflow=hidden;rotatable=0;points=[[0,0.5],[1,0.5]];portConstraint=eastwest;" parent="6gloDPyF0UgEzVEKXp_a-29" vertex="1">
          <mxGeometry y="26" width="170" height="94" as="geometry" />
        </mxCell>
        <mxCell id="6gloDPyF0UgEzVEKXp_a-31" value="" style="line;strokeWidth=1;fillColor=none;align=left;verticalAlign=middle;spacingTop=-1;spacingLeft=3;spacingRight=3;rotatable=0;labelPosition=right;points=[];portConstraint=eastwest;" parent="6gloDPyF0UgEzVEKXp_a-29" vertex="1">
          <mxGeometry y="120" width="170" height="8" as="geometry" />
        </mxCell>
        <mxCell id="6gloDPyF0UgEzVEKXp_a-32" value="+ Регистрация (type): type&#xa;+ Авторизация (type): type&#xa;+ Оплата товара (type): type" style="text;strokeColor=none;fillColor=none;align=left;verticalAlign=top;spacingLeft=4;spacingRight=4;overflow=hidden;rotatable=0;points=[[0,0.5],[1,0.5]];portConstraint=eastwest;" parent="6gloDPyF0UgEzVEKXp_a-29" vertex="1">
          <mxGeometry y="128" width="170" height="52" as="geometry" />
        </mxCell>
        <mxCell id="6gloDPyF0UgEzVEKXp_a-33" value="Безналичный платеж" style="swimlane;fontStyle=1;align=center;verticalAlign=top;childLayout=stackLayout;horizontal=1;startSize=26;horizontalStack=0;resizeParent=1;resizeParentMax=0;resizeLast=0;collapsible=1;marginBottom=0;" parent="1" vertex="1">
          <mxGeometry x="-230" y="875" width="220" height="86" as="geometry" />
        </mxCell>
        <mxCell id="6gloDPyF0UgEzVEKXp_a-34" value="+ Данные банковской карты: строка" style="text;strokeColor=none;fillColor=none;align=left;verticalAlign=top;spacingLeft=4;spacingRight=4;overflow=hidden;rotatable=0;points=[[0,0.5],[1,0.5]];portConstraint=eastwest;" parent="6gloDPyF0UgEzVEKXp_a-33" vertex="1">
          <mxGeometry y="26" width="220" height="26" as="geometry" />
        </mxCell>
        <mxCell id="6gloDPyF0UgEzVEKXp_a-35" value="" style="line;strokeWidth=1;fillColor=none;align=left;verticalAlign=middle;spacingTop=-1;spacingLeft=3;spacingRight=3;rotatable=0;labelPosition=right;points=[];portConstraint=eastwest;" parent="6gloDPyF0UgEzVEKXp_a-33" vertex="1">
          <mxGeometry y="52" width="220" height="8" as="geometry" />
        </mxCell>
        <mxCell id="6gloDPyF0UgEzVEKXp_a-36" value="+ method(type): type" style="text;strokeColor=none;fillColor=none;align=left;verticalAlign=top;spacingLeft=4;spacingRight=4;overflow=hidden;rotatable=0;points=[[0,0.5],[1,0.5]];portConstraint=eastwest;" parent="6gloDPyF0UgEzVEKXp_a-33" vertex="1">
          <mxGeometry y="60" width="220" height="26" as="geometry" />
        </mxCell>
        <mxCell id="6gloDPyF0UgEzVEKXp_a-37" value="Наличный платеж" style="swimlane;fontStyle=1;align=center;verticalAlign=top;childLayout=stackLayout;horizontal=1;startSize=26;horizontalStack=0;resizeParent=1;resizeParentMax=0;resizeLast=0;collapsible=1;marginBottom=0;" parent="1" vertex="1">
          <mxGeometry x="-450" y="875" width="160" height="86" as="geometry" />
        </mxCell>
        <mxCell id="6gloDPyF0UgEzVEKXp_a-38" value="+ field: type" style="text;strokeColor=none;fillColor=none;align=left;verticalAlign=top;spacingLeft=4;spacingRight=4;overflow=hidden;rotatable=0;points=[[0,0.5],[1,0.5]];portConstraint=eastwest;" parent="6gloDPyF0UgEzVEKXp_a-37" vertex="1">
          <mxGeometry y="26" width="160" height="26" as="geometry" />
        </mxCell>
        <mxCell id="6gloDPyF0UgEzVEKXp_a-39" value="" style="line;strokeWidth=1;fillColor=none;align=left;verticalAlign=middle;spacingTop=-1;spacingLeft=3;spacingRight=3;rotatable=0;labelPosition=right;points=[];portConstraint=eastwest;" parent="6gloDPyF0UgEzVEKXp_a-37" vertex="1">
          <mxGeometry y="52" width="160" height="8" as="geometry" />
        </mxCell>
        <mxCell id="6gloDPyF0UgEzVEKXp_a-40" value="+ method(type): type" style="text;strokeColor=none;fillColor=none;align=left;verticalAlign=top;spacingLeft=4;spacingRight=4;overflow=hidden;rotatable=0;points=[[0,0.5],[1,0.5]];portConstraint=eastwest;" parent="6gloDPyF0UgEzVEKXp_a-37" vertex="1">
          <mxGeometry y="60" width="160" height="26" as="geometry" />
        </mxCell>
        <mxCell id="6gloDPyF0UgEzVEKXp_a-41" value="" style="endArrow=block;html=1;rounded=0;entryX=0.171;entryY=0.956;entryDx=0;entryDy=0;entryPerimeter=0;exitX=0.5;exitY=0;exitDx=0;exitDy=0;endFill=0;" parent="1" source="6gloDPyF0UgEzVEKXp_a-37" target="6gloDPyF0UgEzVEKXp_a-16" edge="1">
          <mxGeometry width="50" height="50" relative="1" as="geometry">
            <mxPoint x="-275" y="946" as="sourcePoint" />
            <mxPoint x="-225" y="896" as="targetPoint" />
          </mxGeometry>
        </mxCell>
        <mxCell id="6gloDPyF0UgEzVEKXp_a-43" value="1" style="edgeLabel;html=1;align=center;verticalAlign=middle;resizable=0;points=[];" parent="6gloDPyF0UgEzVEKXp_a-41" vertex="1" connectable="0">
          <mxGeometry x="0.723" y="1" relative="1" as="geometry">
            <mxPoint x="-7" y="10" as="offset" />
          </mxGeometry>
        </mxCell>
        <mxCell id="6gloDPyF0UgEzVEKXp_a-44" value="1" style="edgeLabel;html=1;align=center;verticalAlign=middle;resizable=0;points=[];" parent="6gloDPyF0UgEzVEKXp_a-41" vertex="1" connectable="0">
          <mxGeometry x="-0.7647" y="-2" relative="1" as="geometry">
            <mxPoint y="-10" as="offset" />
          </mxGeometry>
        </mxCell>
        <mxCell id="6gloDPyF0UgEzVEKXp_a-45" value="" style="endArrow=block;html=1;rounded=0;entryX=0.86;entryY=1;entryDx=0;entryDy=0;entryPerimeter=0;exitX=0.5;exitY=0;exitDx=0;exitDy=0;endFill=0;" parent="1" source="6gloDPyF0UgEzVEKXp_a-33" target="6gloDPyF0UgEzVEKXp_a-16" edge="1">
          <mxGeometry width="50" height="50" relative="1" as="geometry">
            <mxPoint x="-90" y="883.14" as="sourcePoint" />
            <mxPoint x="-22.639999999999873" y="785.996" as="targetPoint" />
          </mxGeometry>
        </mxCell>
        <mxCell id="6gloDPyF0UgEzVEKXp_a-46" value="1" style="edgeLabel;html=1;align=center;verticalAlign=middle;resizable=0;points=[];" parent="6gloDPyF0UgEzVEKXp_a-45" vertex="1" connectable="0">
          <mxGeometry x="0.723" y="1" relative="1" as="geometry">
            <mxPoint x="10" y="10" as="offset" />
          </mxGeometry>
        </mxCell>
        <mxCell id="6gloDPyF0UgEzVEKXp_a-47" value="1" style="edgeLabel;html=1;align=center;verticalAlign=middle;resizable=0;points=[];" parent="6gloDPyF0UgEzVEKXp_a-45" vertex="1" connectable="0">
          <mxGeometry x="-0.7647" y="-2" relative="1" as="geometry">
            <mxPoint x="-11" y="-7" as="offset" />
          </mxGeometry>
        </mxCell>
        <mxCell id="6gloDPyF0UgEzVEKXp_a-52" value="Система" style="swimlane;fontStyle=1;align=center;verticalAlign=top;childLayout=stackLayout;horizontal=1;startSize=26;horizontalStack=0;resizeParent=1;resizeParentMax=0;resizeLast=0;collapsible=1;marginBottom=0;" parent="1" vertex="1">
          <mxGeometry x="-402" y="468" width="320" height="170" as="geometry" />
        </mxCell>
        <mxCell id="6gloDPyF0UgEzVEKXp_a-53" value="+ field: type" style="text;strokeColor=none;fillColor=none;align=left;verticalAlign=top;spacingLeft=4;spacingRight=4;overflow=hidden;rotatable=0;points=[[0,0.5],[1,0.5]];portConstraint=eastwest;" parent="6gloDPyF0UgEzVEKXp_a-52" vertex="1">
          <mxGeometry y="26" width="320" height="26" as="geometry" />
        </mxCell>
        <mxCell id="6gloDPyF0UgEzVEKXp_a-54" value="" style="line;strokeWidth=1;fillColor=none;align=left;verticalAlign=middle;spacingTop=-1;spacingLeft=3;spacingRight=3;rotatable=0;labelPosition=right;points=[];portConstraint=eastwest;" parent="6gloDPyF0UgEzVEKXp_a-52" vertex="1">
          <mxGeometry y="52" width="320" height="8" as="geometry" />
        </mxCell>
        <mxCell id="6gloDPyF0UgEzVEKXp_a-55" value="+ Формирование отчетности(type): type&#xa;+ Формирование списка списка купленных&#xa;    билетов (type): type&#xa;+ Оформление билета (type): type&#xa;+ Выдача товара (type): type&#xa;+ Уведомление (type): type" style="text;strokeColor=none;fillColor=none;align=left;verticalAlign=top;spacingLeft=4;spacingRight=4;overflow=hidden;rotatable=0;points=[[0,0.5],[1,0.5]];portConstraint=eastwest;" parent="6gloDPyF0UgEzVEKXp_a-52" vertex="1">
          <mxGeometry y="60" width="320" height="110" as="geometry" />
        </mxCell>
        <mxCell id="6gloDPyF0UgEzVEKXp_a-56" value="" style="endArrow=none;html=1;rounded=0;exitX=0.5;exitY=0;exitDx=0;exitDy=0;startArrow=open;startFill=0;entryX=0.472;entryY=1.018;entryDx=0;entryDy=0;entryPerimeter=0;" parent="1" source="6gloDPyF0UgEzVEKXp_a-13" target="6gloDPyF0UgEzVEKXp_a-55" edge="1">
          <mxGeometry width="50" height="50" relative="1" as="geometry">
            <mxPoint x="-252" y="698" as="sourcePoint" />
            <mxPoint x="-212" y="668" as="targetPoint" />
          </mxGeometry>
        </mxCell>
        <mxCell id="6gloDPyF0UgEzVEKXp_a-57" value="проводит" style="edgeLabel;html=1;align=center;verticalAlign=middle;resizable=0;points=[];" parent="6gloDPyF0UgEzVEKXp_a-56" vertex="1" connectable="0">
          <mxGeometry x="0.2397" y="-1" relative="1" as="geometry">
            <mxPoint y="15" as="offset" />
          </mxGeometry>
        </mxCell>
        <mxCell id="WIW84O_DDz11P5qB6ca5-10" value="1" style="edgeLabel;html=1;align=center;verticalAlign=middle;resizable=0;points=[];" parent="6gloDPyF0UgEzVEKXp_a-56" vertex="1" connectable="0">
          <mxGeometry x="0.7357" y="2" relative="1" as="geometry">
            <mxPoint y="7" as="offset" />
          </mxGeometry>
        </mxCell>
        <mxCell id="6gloDPyF0UgEzVEKXp_a-58" value="" style="endArrow=open;html=1;rounded=0;exitX=0.477;exitY=1.005;exitDx=0;exitDy=0;entryX=0.5;entryY=0;entryDx=0;entryDy=0;endFill=0;exitPerimeter=0;" parent="1" source="6gloDPyF0UgEzVEKXp_a-32" target="6gloDPyF0UgEzVEKXp_a-9" edge="1">
          <mxGeometry width="50" height="50" relative="1" as="geometry">
            <mxPoint x="-202" y="446" as="sourcePoint" />
            <mxPoint x="-152" y="396" as="targetPoint" />
          </mxGeometry>
        </mxCell>
        <mxCell id="6gloDPyF0UgEzVEKXp_a-59" value="Покупает" style="edgeLabel;html=1;align=center;verticalAlign=middle;resizable=0;points=[];" parent="6gloDPyF0UgEzVEKXp_a-58" vertex="1" connectable="0">
          <mxGeometry x="-0.3012" y="1" relative="1" as="geometry">
            <mxPoint x="-2" y="3" as="offset" />
          </mxGeometry>
        </mxCell>
        <mxCell id="6gloDPyF0UgEzVEKXp_a-61" value="" style="endArrow=open;html=1;rounded=0;endFill=0;exitX=0.25;exitY=0;exitDx=0;exitDy=0;" parent="1" source="6gloDPyF0UgEzVEKXp_a-52" target="6gloDPyF0UgEzVEKXp_a-12" edge="1">
          <mxGeometry width="50" height="50" relative="1" as="geometry">
            <mxPoint x="-322" y="480" as="sourcePoint" />
            <mxPoint x="-322" y="390" as="targetPoint" />
          </mxGeometry>
        </mxCell>
        <mxCell id="6gloDPyF0UgEzVEKXp_a-62" value="Оформляет" style="edgeLabel;html=1;align=center;verticalAlign=middle;resizable=0;points=[];" parent="6gloDPyF0UgEzVEKXp_a-61" vertex="1" connectable="0">
          <mxGeometry x="0.3451" y="-1" relative="1" as="geometry">
            <mxPoint x="-1" y="18" as="offset" />
          </mxGeometry>
        </mxCell>
        <mxCell id="WIW84O_DDz11P5qB6ca5-8" value="1" style="edgeLabel;html=1;align=center;verticalAlign=middle;resizable=0;points=[];" parent="6gloDPyF0UgEzVEKXp_a-61" vertex="1" connectable="0">
          <mxGeometry x="-0.6594" y="3" relative="1" as="geometry">
            <mxPoint as="offset" />
          </mxGeometry>
        </mxCell>
        <mxCell id="6gloDPyF0UgEzVEKXp_a-63" value="" style="endArrow=none;html=1;rounded=0;entryX=0.5;entryY=1;entryDx=0;entryDy=0;exitX=0.875;exitY=0;exitDx=0;exitDy=0;exitPerimeter=0;endFill=0;startArrow=diamondThin;startFill=0;" parent="1" source="6gloDPyF0UgEzVEKXp_a-52" target="6gloDPyF0UgEzVEKXp_a-5" edge="1">
          <mxGeometry width="50" height="50" relative="1" as="geometry">
            <mxPoint x="-232" y="440" as="sourcePoint" />
            <mxPoint x="-182" y="390" as="targetPoint" />
          </mxGeometry>
        </mxCell>
        <mxCell id="WIW84O_DDz11P5qB6ca5-7" value="1" style="edgeLabel;html=1;align=center;verticalAlign=middle;resizable=0;points=[];" parent="6gloDPyF0UgEzVEKXp_a-63" vertex="1" connectable="0">
          <mxGeometry x="-0.7244" y="1" relative="1" as="geometry">
            <mxPoint x="1" y="-13" as="offset" />
          </mxGeometry>
        </mxCell>
        <mxCell id="6gloDPyF0UgEzVEKXp_a-66" value="Список свободных, забронированных и &#xa;купленных мест" style="swimlane;fontStyle=1;align=center;verticalAlign=top;childLayout=stackLayout;horizontal=1;startSize=40;horizontalStack=0;resizeParent=1;resizeParentMax=0;resizeLast=0;collapsible=1;marginBottom=0;" parent="1" vertex="1">
          <mxGeometry x="-814" y="494" width="275" height="148" as="geometry" />
        </mxCell>
        <mxCell id="6gloDPyF0UgEzVEKXp_a-67" value="+ ID: строка&#xa;+ Наименование: строка&#xa;+ Количество: строка&#xa;+ Цена: строка" style="text;strokeColor=none;fillColor=none;align=left;verticalAlign=top;spacingLeft=4;spacingRight=4;overflow=hidden;rotatable=0;points=[[0,0.5],[1,0.5]];portConstraint=eastwest;" parent="6gloDPyF0UgEzVEKXp_a-66" vertex="1">
          <mxGeometry y="40" width="275" height="74" as="geometry" />
        </mxCell>
        <mxCell id="6gloDPyF0UgEzVEKXp_a-68" value="" style="line;strokeWidth=1;fillColor=none;align=left;verticalAlign=middle;spacingTop=-1;spacingLeft=3;spacingRight=3;rotatable=0;labelPosition=right;points=[];portConstraint=eastwest;" parent="6gloDPyF0UgEzVEKXp_a-66" vertex="1">
          <mxGeometry y="114" width="275" height="8" as="geometry" />
        </mxCell>
        <mxCell id="6gloDPyF0UgEzVEKXp_a-69" value="+ method(type): type" style="text;strokeColor=none;fillColor=none;align=left;verticalAlign=top;spacingLeft=4;spacingRight=4;overflow=hidden;rotatable=0;points=[[0,0.5],[1,0.5]];portConstraint=eastwest;" parent="6gloDPyF0UgEzVEKXp_a-66" vertex="1">
          <mxGeometry y="122" width="275" height="26" as="geometry" />
        </mxCell>
        <mxCell id="WIW84O_DDz11P5qB6ca5-3" value="" style="endArrow=open;html=1;rounded=0;entryX=1;entryY=0.5;entryDx=0;entryDy=0;endFill=0;exitX=-0.007;exitY=0.363;exitDx=0;exitDy=0;exitPerimeter=0;" parent="1" source="6gloDPyF0UgEzVEKXp_a-55" target="6gloDPyF0UgEzVEKXp_a-66" edge="1">
          <mxGeometry width="50" height="50" relative="1" as="geometry">
            <mxPoint x="-492" y="618" as="sourcePoint" />
            <mxPoint x="-422" y="538" as="targetPoint" />
          </mxGeometry>
        </mxCell>
        <mxCell id="WIW84O_DDz11P5qB6ca5-4" value="Формирует" style="edgeLabel;html=1;align=center;verticalAlign=middle;resizable=0;points=[];" parent="WIW84O_DDz11P5qB6ca5-3" vertex="1" connectable="0">
          <mxGeometry x="-0.1325" y="-2" relative="1" as="geometry">
            <mxPoint x="-21" y="-15" as="offset" />
          </mxGeometry>
        </mxCell>
        <mxCell id="WIW84O_DDz11P5qB6ca5-9" value="1" style="edgeLabel;html=1;align=center;verticalAlign=middle;resizable=0;points=[];" parent="WIW84O_DDz11P5qB6ca5-3" vertex="1" connectable="0">
          <mxGeometry x="-0.7003" y="-2" relative="1" as="geometry">
            <mxPoint as="offset" />
          </mxGeometry>
        </mxCell>
        <mxCell id="WIW84O_DDz11P5qB6ca5-13" value="" style="endArrow=open;html=1;rounded=0;entryX=0.5;entryY=0;entryDx=0;entryDy=0;endFill=0;" parent="1" target="6gloDPyF0UgEzVEKXp_a-5" edge="1">
          <mxGeometry width="50" height="50" relative="1" as="geometry">
            <mxPoint x="-122" y="210" as="sourcePoint" />
            <mxPoint x="18" y="206" as="targetPoint" />
          </mxGeometry>
        </mxCell>
        <mxCell id="WIW84O_DDz11P5qB6ca5-14" value="Просмотривает" style="edgeLabel;html=1;align=center;verticalAlign=middle;resizable=0;points=[];" parent="WIW84O_DDz11P5qB6ca5-13" vertex="1" connectable="0">
          <mxGeometry x="-0.1325" y="-2" relative="1" as="geometry">
            <mxPoint x="4" y="28" as="offset" />
          </mxGeometry>
        </mxCell>
        <mxCell id="WIW84O_DDz11P5qB6ca5-15" value="1" style="edgeLabel;html=1;align=center;verticalAlign=middle;resizable=0;points=[];" parent="WIW84O_DDz11P5qB6ca5-13" vertex="1" connectable="0">
          <mxGeometry x="-0.7782" y="1" relative="1" as="geometry">
            <mxPoint y="24" as="offset" />
          </mxGeometry>
        </mxCell>
        <mxCell id="WIW84O_DDz11P5qB6ca5-16" value="1" style="edgeLabel;html=1;align=center;verticalAlign=middle;resizable=0;points=[];" parent="WIW84O_DDz11P5qB6ca5-13" vertex="1" connectable="0">
          <mxGeometry x="0.6336" y="1" relative="1" as="geometry">
            <mxPoint as="offset" />
          </mxGeometry>
        </mxCell>
        <mxCell id="fJ78QGQ1UUMw5GmdEuqV-1" value="Кассир" style="swimlane;fontStyle=1;align=center;verticalAlign=top;childLayout=stackLayout;horizontal=1;startSize=40;horizontalStack=0;resizeParent=1;resizeParentMax=0;resizeLast=0;collapsible=1;marginBottom=0;" vertex="1" parent="1">
          <mxGeometry x="-804" y="287" width="275" height="124" as="geometry" />
        </mxCell>
        <mxCell id="fJ78QGQ1UUMw5GmdEuqV-2" value="+ ФИО: строка&#xa;+ Логин: строка&#xa;+ Пароль: строка" style="text;strokeColor=none;fillColor=none;align=left;verticalAlign=top;spacingLeft=4;spacingRight=4;overflow=hidden;rotatable=0;points=[[0,0.5],[1,0.5]];portConstraint=eastwest;" vertex="1" parent="fJ78QGQ1UUMw5GmdEuqV-1">
          <mxGeometry y="40" width="275" height="50" as="geometry" />
        </mxCell>
        <mxCell id="fJ78QGQ1UUMw5GmdEuqV-3" value="" style="line;strokeWidth=1;fillColor=none;align=left;verticalAlign=middle;spacingTop=-1;spacingLeft=3;spacingRight=3;rotatable=0;labelPosition=right;points=[];portConstraint=eastwest;" vertex="1" parent="fJ78QGQ1UUMw5GmdEuqV-1">
          <mxGeometry y="90" width="275" height="8" as="geometry" />
        </mxCell>
        <mxCell id="fJ78QGQ1UUMw5GmdEuqV-4" value="+ method(type): type" style="text;strokeColor=none;fillColor=none;align=left;verticalAlign=top;spacingLeft=4;spacingRight=4;overflow=hidden;rotatable=0;points=[[0,0.5],[1,0.5]];portConstraint=eastwest;" vertex="1" parent="fJ78QGQ1UUMw5GmdEuqV-1">
          <mxGeometry y="98" width="275" height="26" as="geometry" />
        </mxCell>
        <mxCell id="fJ78QGQ1UUMw5GmdEuqV-9" style="rounded=0;orthogonalLoop=1;jettySize=auto;html=1;exitX=1;exitY=0.5;exitDx=0;exitDy=0;entryX=0;entryY=0.5;entryDx=0;entryDy=0;" edge="1" parent="1" source="fJ78QGQ1UUMw5GmdEuqV-2" target="6gloDPyF0UgEzVEKXp_a-10">
          <mxGeometry relative="1" as="geometry" />
        </mxCell>
      </root>
    </mxGraphModel>
  </diagram>
</mxfile>
